/* XPM */
static char *ce937492d3ca4567a248afef73d76374R6i8p5JR8O6r5A5T[] = {
/* columns rows colors chars-per-pixel */
"32 32 22 1 ",
"  c black",
". c #010006",
"X c #040028",
"o c #060038",
"O c #000002",
"+ c #060035",
"@ c #100094",
"# c #1600C8",
"$ c #1800D6",
"% c #080049",
"& c #1700D2",
"* c #1C00FF",
"= c #100096",
"- c #010007",
"; c #1600C7",
": c #040027",
"> c #060036",
", c #1700D5",
"< c #1700D6",
"1 c #040029",
"2 c #060037",
"3 c white",
/* pixels */
"                                ",
"                                ",
"                                ",
"                                ",
"                                ",
"                                ",
"                                ",
"                                ",
"                                ",
"             .XooX.             ",
"           O+@#$$#@+O           ",
"          O%&******&%O          ",
"          +&********&+          ",
"         .=**********@-         ",
"         X;**********;:         ",
"         >,**********,>         ",
"         >,**********,>         ",
"         X#**********;:         ",
"         -@**********@-         ",
"          +&********&+          ",
"          O%&******&%O          ",
"           O+@#$<;@+O           ",
"             -1o2X-             ",
"                                ",
"                                ",
"                                ",
"                                ",
"                                ",
"                                ",
"                                ",
"                                ",
"                                "
};
