/* XPM */
static char *wall_resized[] = {
/* columns rows colors chars-per-pixel */
"32 32 11 1 ",
"  c #717171",
". c #737373",
"X c #757575",
"o c #777777",
"O c #929292",
"+ c #959595",
"@ c #BEBEBE",
"# c #BFBFBF",
"$ c #CDCDCD",
"% c #FEFEFE",
"& c #FFFFFF",
/* pixels */
"&&&&&&&&&&&&&&&&&&&&&&&&&&&&&&&&",
"&&&&&&&&&&&&&&&&&&&&&&&&&&&&&&&&",
"&&&&&&&&&&&&&&&&&&&&&&&&&&&&&&&&",
"&&&$@######################@$&&&",
"&&%+XooooooooooooooooooooooX+%&&",
"&&%O ...................... O%&&",
"&&%O ...................... O%&&",
"&&%O ...................... O%&&",
"&&%O ...................... O%&&",
"&&%O ...................... O%&&",
"&&%O ...................... O%&&",
"&&%O ...................... O%&&",
"&&%O ...................... O%&&",
"&&%O ...................... O%&&",
"&&%O ...................... O%&&",
"&&%O ...................... O%&&",
"&&%O ...................... O%&&",
"&&%O ...................... O%&&",
"&&%O ...................... O%&&",
"&&%O ...................... O%&&",
"&&%O ...................... O%&&",
"&&%O ...................... O%&&",
"&&%O ...................... O%&&",
"&&%O ...................... O%&&",
"&&%O ...................... O%&&",
"&&%O ...................... O%&&",
"&&%O ...................... O%&&",
"&&%+XooooooooooooooooooooooX+%&&",
"&&&$@######################@$&&&",
"&&&&&&&&&&&&&&&&&&&&&&&&&&&&&&&&",
"&&&&&&&&&&&&&&&&&&&&&&&&&&&&&&&&",
"&&&&&&&&&&&&&&&&&&&&&&&&&&&&&&&&"
};
