/* XPM */
static char *ffa849ef81004477e6914db1ed0c70e3kyeP196TwDwHLhSh[] = {
/* columns rows colors chars-per-pixel */
"32 32 140 2 ",
"   c #5E919E",
".  c #67878F",
"X  c #6C868A",
"o  c #67898F",
"O  c #6C898D",
"+  c #758987",
"@  c #718688",
"#  c #748B8B",
"$  c #798D8A",
"%  c #7B928E",
"&  c #658C95",
"*  c #6B8C91",
"=  c #628E99",
"-  c #718E90",
";  c #6D9195",
":  c #64929C",
">  c #6C959A",
",  c #6D9A9E",
"<  c #749394",
"1  c #7B9591",
"2  c #779897",
"3  c #7D9A95",
"4  c #729799",
"5  c #749C9C",
"6  c #7B9D9A",
"7  c #7CA19D",
"8  c #5B95A4",
"9  c #5D99A7",
"0  c #569DAE",
"q  c #599BAB",
"w  c #559FB0",
"e  c #589FB0",
"r  c #6296A2",
"t  c #659BA4",
"y  c #6B9DA2",
"u  c #629EA9",
"i  c #719FA1",
"p  c #5DA0AD",
"a  c #56A0B1",
"s  c #5AA1B2",
"d  c #6CA2A6",
"f  c #63A1AA",
"g  c #6AA2A9",
"h  c #72A4A6",
"j  c #7BA5A2",
"k  c #75A9A7",
"l  c #7BAAA6",
"z  c #7DAEA8",
"x  c #7FB1AA",
"c  c #6DACBB",
"v  c #75AEB7",
"b  c #78AFB6",
"n  c #71AEB8",
"m  c #7CB1B5",
"M  c #819B94",
"N  c #84A097",
"B  c #84A49B",
"V  c #87A99E",
"C  c #88A89D",
"Z  c #83ABA3",
"A  c #8AAEA2",
"S  c #86B0A7",
"D  c #8CB3A6",
"F  c #84B3AA",
"G  c #8AB5AA",
"H  c #86B9AD",
"J  c #8DBAAC",
"K  c #90BCAD",
"L  c #83B3B5",
"P  c #89B6B5",
"I  c #8EBCB2",
"U  c #90BEB2",
"Y  c #93C0B5",
"T  c #97C2B8",
"R  c #9AC5B9",
"E  c #9FC8D2",
"W  c #A6CACF",
"Q  c #ABCCCE",
"!  c #B0CECE",
"~  c #B4D2CF",
"^  c #A2C9D1",
"/  c #B9D6D0",
"(  c #BCD8D0",
")  c #B8E6DF",
"_  c #BCE9DF",
"`  c #94D2E2",
"'  c #9CD5E4",
"]  c #9FD9E1",
"[  c #A1D7E5",
"{  c #A4DAE4",
"}  c #ACDDE5",
"|  c #ADDCE9",
" . c #B0DEE7",
".. c #B2DFEA",
"X. c #AEE0E1",
"o. c #B4E2E4",
"O. c #BAE5E5",
"+. c #BDE9E1",
"@. c #B4E0EA",
"#. c #BBE3EB",
"$. c #D3E4DE",
"%. c #C2DBE1",
"&. c #C9E0E5",
"*. c #C4EBE4",
"=. c #CAEEE3",
"-. c #C2E6EC",
";. c #D4E5E0",
":. c #D8E8E3",
">. c #DCEBEE",
",. c #CDF0E3",
"<. c #D1F1E6",
"1. c #D2F1E8",
"2. c #D5F2E9",
"3. c #D9F3EA",
"4. c #D8F4EA",
"5. c #DCF4EC",
"6. c #DCF5EC",
"7. c #CBE9F1",
"8. c #D1EBF2",
"9. c #D1ECF1",
"0. c #D5EFF2",
"q. c #DBF2F2",
"w. c #DEF3F2",
"e. c #E5EFEC",
"r. c #E2F6EF",
"t. c #E2EFF1",
"y. c #E4EFF1",
"u. c #E5F0F1",
"i. c #E3F6F1",
"p. c #E6F7F2",
"a. c #E9F2F1",
"s. c #EBF4F1",
"d. c #E5F4F8",
"f. c #E9F5F9",
"g. c #EFF8F9",
"h. c #F3FAF9",
"j. c #F4FBF8",
"k. c #F4F9FA",
"l. c #F5FCF9",
"z. c #F8FCFB",
/* pixels */
"7.-.#.#.....| | | | o.o.o.o.O.O.O.O.*.*.*.*.=.=.=.,.1.1.3.5.r.p.",
"-.#...| } { [ [ { { { } } } o.o.o.o.+.+.+.+.*.*.*.=.=.,.1.2.5.r.",
"#...} [ ' ` ` ` ` ' ] ] { { { } X.X.o.o.o.) +._ +.*.*.*.=.<.2.5.",
"..| { 7.9.9.8.9.9.9.0.0.0.q.q.q.q.w.w.w.i.i.i.i.i.i.p.p.r.<.<.5.",
"| [ [ f.k.t.t.t.t.t.y.y.u.u.u.u.u.u.a.a.a.a.a.a.a.s.s.k.l.<.,.2.",
"} ' ' f.&.c c c n v v b m m L L L P P I I U U T R R R :.k.,.,.<.",
"{ ` ' f.%.a a p p p f g g g d h h k l z z F F J J J I $.k.,.,.<.",
"[ ` ` f.%.s s p p u u t y d d h h j j l Z F F G J I U $.l.=.=.<.",
"' ` ` f.%.e q q q t t t y , , 5 5 7 7 7 Z Z S G J J K $.k.=.=.,.",
"' ` ` f.%.e q q 9 r r : > > > 4 5 5 6 7 7 B Z S G J K $.k.=.=.,.",
"' ` ` f.%.q q q 8 r : : ; ; ; < 4 4 2 6 6 B A A D J K $.k.=.=.,.",
"' ` ` f.%.q q 8 8 : : & * * * - < < 1 1 3 B C A S G J $.k.=.=.,.",
"' ` ` f.%.q q 8   : & & * O O # $ $ % 1 1 M N V D D J $.k.,.=.,.",
"' ` ` f.%.q 8 8   = & * O O X @ + + $ % 1 M N V A D K $.k.,.=.,.",
"' ` ` f.%.q 8 8   = & o X X X @ + + $ % % M N C A D J $.k.,.,.,.",
"' ` ` f.%.q 8 8   = & . X X X @ + + $ % % M N C A D K $.k.,.,.,.",
"' ` ` f.%.q 8 8   = & X X X X @ + + $ $ % M N C A D J $.k.,.,.,.",
"' ` ` f.%.q 8 8   = & O X X X @ + + $ % % M N C A D J $.k.,.,.,.",
"' ` ` f.%.q 8 8   = & * O X X @ @ + $ % 1 M N C A D J $.k.,.,.,.",
"' ` ` f.%.q q 8   = & & O O O @ + $ % % 1 M N V A D J $.k.,.=.,.",
"' ` ` f.%.q q 8 8 : = & * * O # # $ 1 1 3 M B A S D J $.k.,.=.,.",
"' ` ` f.%.q q 8 8 : : : ; ; ; < < < 2 3 6 B C A S J J $.k.=.=.,.",
"' ` ` f.%.q q q 9 r : : > > > 4 4 2 2 6 7 B A S G J K $.k.=.=.,.",
"' ` ` f.%.e q q 9 t t t , , , 5 5 6 7 7 j Z Z G J J K $.k.=.=.,.",
"[ ` ` f.%.s e q q u t t y y y i h j j j Z Z F G J J U $.k.=.=.<.",
"[ ` ` f.%.s s s f f g g g d h h k l l z F F G J I I Y ;.k.=.=.<.",
"{ ' ' f.%.w 0 0 p p p f g g g d h k k z z x F H H H J $.k.,.,.<.",
"| ' ' f.>.E E ^ ^ ^ ^ W Q Q Q Q Q ! ~ ~ ~ ~ / / ( ( ( e.l.,.,.2.",
"..{ { d.k.g.g.g.g.g.g.h.h.h.h.h.h.h.h.h.h.h.h.k.k.k.k.z.h.<.<.4.",
"#.| { ......| |  .o.o.o.O.O.#.O.-.-.*.*.*.*.=.=.=.=.1.2.2.<.2.5.",
"-.#.| { ' ' ' ' ' ] ] { { { } } X.o.o.o.o.+.+.+.*.*.*.=.,.2.5.5.",
"7.-.#.@.| | } } } } | | o.o.o.o.O.O.O.*.*.*.*.=.=.=.,.1.2.5.5.i."
};
