/* XPM */
static char *_671f8ab74764b94e96589c5296215daZcYMfTSLuk6TVE9f[] = {
/* columns rows colors chars-per-pixel */
"32 32 161 2 ",
"   c black",
".  c #100303",
"X  c #300909",
"o  c #050101",
"O  c #7A1717",
"+  c #C22525",
"@  c #2A0808",
"#  c #310909",
"$  c #1A0505",
"%  c #4C0E0E",
"&  c #E42C2C",
"*  c #FE3131",
"=  c #9B1D1D",
"-  c #110303",
";  c #070101",
":  c #350A0A",
">  c #150404",
",  c #0C0202",
"<  c #9E1E1E",
"1  c #C52626",
"2  c #721616",
"3  c #1F0606",
"4  c #030000",
"5  c #260707",
"6  c #BE2424",
"7  c #FF3131",
"8  c #F22F2F",
"9  c #671414",
"0  c #040101",
"q  c #0E0303",
"w  c #430D0D",
"e  c #A41F1F",
"r  c #D12828",
"t  c #3D0B0B",
"y  c #0F0303",
"u  c #C12525",
"i  c #F73030",
"p  c #D62929",
"a  c #811818",
"s  c #9D1E1E",
"d  c #D92A2A",
"f  c #741616",
"g  c #AE2121",
"h  c #EE2E2E",
"j  c #F62F2F",
"k  c #541010",
"l  c #D52929",
"z  c #681414",
"x  c #010000",
"c  c #160404",
"v  c #E62C2C",
"b  c #F93030",
"n  c #7C1818",
"m  c #0B0202",
"M  c #140404",
"N  c #400C0C",
"B  c #F02E2E",
"V  c #FC3030",
"C  c #1B0505",
"Z  c #120303",
"A  c #080101",
"S  c #981D1D",
"D  c #BB2424",
"F  c #CF2727",
"G  c #E22B2B",
"H  c #EF2E2E",
"J  c #F83030",
"K  c #E92D2D",
"L  c #D82A2A",
"P  c #C32525",
"I  c #B12222",
"U  c #060101",
"Y  c #1D0505",
"T  c #C82626",
"R  c #F42F2F",
"E  c #6E1515",
"W  c #751616",
"Q  c #CA2727",
"!  c #1E0505",
"~  c #781717",
"^  c #7F1818",
"/  c #DE2A2A",
"(  c #250707",
")  c #DB2A2A",
"_  c #520F0F",
"`  c #4E0F0F",
"'  c #BD2424",
"]  c #FD3030",
"[  c #851A1A",
"{  c #130404",
"}  c #811919",
"|  c #E52C2C",
" . c #FF3232",
".. c #410C0C",
"X. c #BF2424",
"o. c #801919",
"O. c #280808",
"+. c #F22E2E",
"@. c #CC2727",
"#. c #591111",
"$. c #0A0202",
"%. c #661313",
"&. c #D92929",
"*. c #F72F2F",
"=. c #701515",
"-. c #CE2727",
";. c #200606",
":. c #0D0202",
">. c #AC2121",
",. c #ED2E2E",
"<. c #450D0D",
"1. c #430C0C",
"2. c #A62020",
"3. c #080202",
"4. c #A51F1F",
"5. c #E32C2C",
"6. c #420D0D",
"7. c #370B0B",
"8. c #D22828",
"9. c #F52F2F",
"0. c #FA3030",
"q. c #881A1A",
"w. c #020000",
"e. c #130303",
"r. c #3B0B0B",
"t. c #7D1818",
"y. c #A21F1F",
"u. c #711515",
"i. c #5D1111",
"p. c #490E0E",
"a. c #280707",
"s. c #1E0606",
"d. c #EB2D2D",
"f. c #871A1A",
"g. c #120404",
"h. c #DE2B2B",
"j. c #721515",
"k. c #E12B2B",
"l. c #E02B2B",
"z. c #5E1212",
"x. c #B92323",
"c. c #CB2727",
"v. c #7B1717",
"b. c #220606",
"n. c #581111",
"m. c #A31F1F",
"M. c #230707",
"N. c #AA2020",
"B. c #4B0E0E",
"V. c #090202",
"C. c #6D1515",
"Z. c #D02828",
"A. c #340A0A",
"S. c #8A1A1A",
"D. c #290808",
"F. c #BA2323",
"G. c #5F1212",
"H. c #040000",
"J. c #3F0C0C",
"K. c #861A1A",
"L. c white",
/* pixels */
"                              . X                               ",
"                            o O + @                             ",
"              o # $         % & * = -       ; : >               ",
"              , < 1 2 3 4 5 6 7 7 8 9 0 q w e r t               ",
"              y u 7 i p a s * 7 7 7 d f g h * j k               ",
"              - l 7 7 7 * * 7 7 7 7 7 * 7 7 7 j z x             ",
"              c v 7 7 7 7 7 7 7 7 7 7 7 7 7 7 b n               ",
"    0 m q - M N B 7 7 7 7 7 7 7 7 7 7 7 7 7 7 V < C Z y , A x   ",
"    # S D F G H * 7 7 7 7 7 7 7 7 7 7 7 7 7 7 7 J K L P I 9 U   ",
"    Y T 7 7 7 7 7 7 7 7 7 7 7 7 7 7 7 7 7 7 7 7 7 7 7 7 R E     ",
"      W J 7 7 7 7 7 7 7 7 7 7 7 7 7 7 7 7 7 7 7 7 7 7 7 Q !     ",
"      3 p 7 7 7 7 7 7 7 7 7 7 7 7 7 7 7 7 7 7 7 7 7 7 J ~       ",
"      4 ^ * 7 7 7 7 7 7 7 7 7 7 7 7 7 7 7 7 7 7 7 7 7 / !       ",
"      ( S * 7 7 7 7 7 7 7 7 7 7 7 7 7 7 7 7 7 7 7 7 7 ) _ A     ",
"  U ` ' ] 7 7 7 7 7 7 7 7 7 7 7 7 7 7 7 7 7 7 7 7 7 7 7 v [ Y   ",
"{ } | 7 7 7 7 7 7 7 7 7 7 7 7 7 7 7 7 7 7 7 7 7 7 7 7 7  .b D ..",
"X X.* 7 7 7 7 7 7 7 7 7 7 7 7 7 7 7 7 7 7 7 7 7 7 7 7 7 7  .K o.",
"  O.S +.7 7 7 7 7 7 7 7 7 7 7 7 7 7 7 7 7 7 7 7 7 7 7 7 7 @.#.$.",
"    . %.&.7 7 7 7 7 7 7 7 7 7 7 7 7 7 7 7 7 7 7 7 7 7 *.< X     ",
"      4 =.* 7 7 7 7 7 7 7 7 7 7 7 7 7 7 7 7 7 7 7 7 7 -.;.      ",
"      :.>.7 7 7 7 7 7 7 7 7 7 7 7 7 7 7 7 7 7 7 7 7 7 ,.<.      ",
"      1.h 7 7 7 7 7 7 7 7 7 7 7 7 7 7 7 7 7 7 7 7 7 7 * 2.3.    ",
"    A 4.* 7 7 7 7 7 7 7 7 7 7 7 7 7 7 7 7 7 7 7 7 7 7  .5.6.    ",
"    7.8.9.j b V 7 7 7 7 7 7 7 7 7 7 7 7 7 7 7 7 * 0.*.9.+.q.w.  ",
"    e.r.k z t.y.J 7 7 7 7 7 7 7 7 7 7 7 7 7 7 * r q.u.i.p.a.4   ",
"          x x s.d.7 7 7 7 7 7 7 7 7 7 7 7 7 7 0.f.w.x x         ",
"              g.h.7 7 7 7 7 7 7 7 7 7 7 7 7 7 *.j.x             ",
"              . Q 7 7 b k.l.7 7 7 7 b l H *  .9.z.x             ",
"              q x.R c.v.b.n.K 7 7 7 m.M.% N.| +.B.              ",
"              V.C.E 3 x   V.f.b  .Z.A.    $.<.S.D.              ",
"              x ;           Y F.d.G.          4 H.              ",
"                              J.K.,                             "
};
