/* XPM */
static char *play_resized[] = {
/* columns rows colors chars-per-pixel */
"32 32 52 1 ",
"  c #000000",
". c #000100",
"X c #010201",
"o c #040703",
"O c #040803",
"+ c #060B04",
"@ c #070C05",
"# c #0C1508",
"$ c #0D1609",
"% c #0E1809",
"& c #172710",
"* c #172810",
"= c #1D3213",
"- c #1D3314",
"; c #1D3415",
": c #1E3415",
"> c #1F3615",
", c #254019",
"< c #2A491D",
"1 c #2B4A1D",
"2 c #2B4B1E",
"3 c #325623",
"4 c #335723",
"5 c #386227",
"6 c #396227",
"7 c #396327",
"8 c #3B6528",
"9 c #42722E",
"0 c #43742E",
"q c #518C38",
"w c #528E39",
"e c #5EA241",
"r c #5EA341",
"t c #5FA442",
"y c #5FA542",
"u c #65AE46",
"i c #65AF46",
"p c #66AF46",
"a c #70C14D",
"s c #70C24E",
"d c #76CC52",
"f c #77CC52",
"g c #77CD52",
"h c #79D053",
"j c #7AD254",
"k c #7DD856",
"l c #7DD857",
"z c #7ED957",
"x c #7FDA57",
"c c #7FDA58",
"v c #80DC58",
"b c #81DE59",
/* pixels */
"                                ",
"                                ",
"                                ",
"               XX               ",
"               ,,               ",
"              %rr%              ",
"              8jj8              ",
"             *ivvi*             ",
"            o0zzzz0o            ",
"            >axzzxa>            ",
"           +wzzzzzzw+           ",
"           1dzzzzzzd<           ",
"          $yczzzzzzct$          ",
"         .7hxzzzzzzxh7.         ",
"         *pvzzzzzzzzvu&         ",
"        o0zzzzzzzzzzzl0O        ",
"        ;sczzzzzzzzzzcs-        ",
"       @wzzzzzzzzzzzzzzq@       ",
"      .<gzzzzzzzzzzzzzzf<.      ",
"      #exzzzzzzzzzzzzzzxe#      ",
"     .6hxzzzzzzzzzzzzzzxh5.     ",
"     *pvzzzzzzzzzzzzzzzzvp*     ",
"    O9kzzzzzzzzzzzzzzzzzzk9O    ",
"    :sczzzzzzzzzzzzzzzzzzca=    ",
"   @wzzzzzzzzzzzzzzzzzzzzzzq@   ",
"  .2jbbbbbbbbbbbbbbbbbbbbbbj2.  ",
"  .-344444444444444444444443-.  ",
"                                ",
"                                ",
"                                ",
"                                ",
"                                "
};
