/* XPM */
static char *_5be9b3399204df1ce80bf1adb1a20dccDoiDWl4OlsQ6Fho[] = {
/* columns rows colors chars-per-pixel */
"32 32 91 1 ",
"  c black",
". c #000001",
"X c #12162D",
"o c #11152B",
"O c #020309",
"+ c #3E4A89",
"@ c #3E4983",
"# c #020307",
"$ c #0F1227",
"% c #5A6CC7",
"& c #5A6BC3",
"* c #0E1223",
"= c #242D56",
"- c #6C81E9",
"; c #6E81E8",
": c #252C52",
"> c #05060F",
", c #404D90",
"< c #798EFA",
"1 c #798EF9",
"2 c #414D8D",
"3 c #04060D",
"4 c #5A6BC4",
"5 c #7E93FF",
"6 c #5B6CC2",
"7 c #12162A",
"8 c #000103",
"9 c #27305D",
"0 c #6E82E8",
"q c #7F94FF",
"w c #7F93FF",
"e c #6F83E7",
"r c #272E58",
"t c #060811",
"y c #435198",
"u c #7A8FFD",
"i c #8093FE",
"p c #7F93FE",
"a c #7B8FFC",
"s c #435092",
"d c #05070F",
"f c #131832",
"g c #5F71CC",
"h c #6172CA",
"j c #13172F",
"k c #010204",
"l c #2C376A",
"z c #7287F1",
"x c #7387F0",
"c c #2D3665",
"v c #010103",
"b c #070914",
"n c #4B5AA5",
"m c #7B90FD",
"M c #7B8FFD",
"N c #4B59A0",
"B c #060912",
"V c #171D3B",
"C c #6376D6",
"Z c #7E92FE",
"A c #6476D3",
"S c #171D38",
"D c #010205",
"F c #313B71",
"G c #7388F2",
"H c #7F92FE",
"J c #7488F2",
"K c #313B6D",
"L c #010104",
"P c #0A0D1C",
"I c #4D5DAB",
"U c #7C91FD",
"Y c #7F94FE",
"T c #4E5DA8",
"R c #090C19",
"E c #1A203F",
"W c #5C6EC9",
"Q c #6E82E9",
"! c #6D82E8",
"~ c #6E82EA",
"^ c #5D6EC7",
"/ c #191E3A",
"( c #0E1123",
") c #252C54",
"_ c #262E58",
"` c #252E57",
"' c #262D58",
"] c #0D1020",
"[ c #000101",
"{ c #010102",
"} c white",
/* pixels */
"                                ",
"                                ",
"                                ",
"                                ",
"                                ",
"                                ",
"                                ",
"               ..               ",
"               Xo               ",
"              O+@#              ",
"              $%&*              ",
"              =-;:              ",
"             >,<123             ",
"             X45567             ",
"            890qwer.            ",
"            tyuipasd            ",
"            fg5pp5hj            ",
"           klzwppwxcv           ",
"           bnmppppMNB           ",
"          .VCZpwppZAS           ",
"          DFGpppppHJKL          ",
"          PIUYqqqqYUTR          ",
"          EWQ0!!!!0~^/          ",
"          ()_``````')]          ",
"          [{{{{{{{{{{.          ",
"                                ",
"                                ",
"                                ",
"                                ",
"                                ",
"                                ",
"                                "
};
