/* XPM */
static char *_f907869a57e4597f46df79c6163967eNzD6DCdAFGUPE19H[] = {
/* columns rows colors chars-per-pixel */
"32 32 98 2 ",
"   c #000000",
".  c #090306",
"X  c #0D0509",
"o  c #12070C",
"O  c #15090E",
"+  c #170910",
"@  c #1B0B13",
"#  c #220C16",
"$  c #230E19",
"%  c #2C0E1C",
"&  c #310E1E",
"*  c #26101C",
"=  c #2C101D",
"-  c #3A0E23",
";  c #2C1220",
":  c #331424",
">  c #391225",
",  c #3D162A",
"<  c #3B192B",
"1  c #411026",
"2  c #43152A",
"3  c #4C162F",
"4  c #471B32",
"5  c #4C1C34",
"6  c #541B36",
"7  c #531F39",
"8  c #5A1E3A",
"9  c #651E3E",
"0  c #5A203C",
"q  c #5E2240",
"w  c #632443",
"e  c #6C2243",
"r  c #6C2749",
"t  c #742A4D",
"y  c #72314F",
"u  c #7A2E51",
"i  c #7C3054",
"p  c #813456",
"a  c #843659",
"s  c #8A375C",
"d  c #80395A",
"f  c #8A395D",
"g  c #894463",
"h  c #934266",
"j  c #934769",
"k  c #944A6C",
"l  c #99496C",
"z  c #9F4970",
"x  c #9E5172",
"c  c #A24D73",
"v  c #A25376",
"b  c #AA557B",
"n  c #A5587A",
"m  c #AA5D7F",
"M  c #B25D82",
"N  c #B56086",
"B  c #B76388",
"V  c #BC7292",
"C  c #C37396",
"Z  c #C6799B",
"A  c #C58EA6",
"S  c #C593AA",
"D  c #CE97AE",
"F  c #CE98AF",
"G  c #CF9BB2",
"H  c #D794B0",
"J  c #D997B2",
"K  c #D29DB4",
"L  c #DEA2BB",
"P  c #DCA9BF",
"I  c #E0A4BC",
"U  c #DCA9C0",
"Y  c #DCB5C6",
"T  c #E3BBCC",
"R  c #E5C5D3",
"E  c #E7C8D6",
"W  c #E8C8D6",
"Q  c #EDCBDA",
"!  c #F0CFDD",
"~  c #EED6E0",
"^  c #F3D4E1",
"/  c #F1D9E3",
"(  c #F4D8E3",
")  c #F1D9E4",
"_  c #F5DAE5",
"`  c #F1DEE6",
"'  c #F6DEE7",
"]  c #F4DEE8",
"[  c #F5E1E9",
"{  c #F4E2EA",
"}  c #F7E6ED",
"|  c #F9E6ED",
" . c #FBEFF4",
".. c #FDEFF5",
"X. c #FEF1F6",
"o. c #FFF9FB",
"O. c #FEFBFC",
"+. c #FEFEFF",
/* pixels */
"                                                                ",
"                                                                ",
"                                                                ",
"                        . . . . . . . .                         ",
"                  . X O # % - 1 1 - & # @ X .                   ",
"                . O % 1 9 p j v v l a 9 2 = @ .                 ",
"              . @ > 9 x F R / [ [ / W K n e 2 # X               ",
"            . @ 2 p D [ +.+.+.+.+.+.+.+.} K f 3 $ X             ",
"          . @ 2 f Y +.+.+.+.+.+.+.+.+.+.+.+.T h 3 # .           ",
"        . O > i Y +.+.+.+.+.+.+.+.+.+.+.+.+.+.T s , + .         ",
"        . $ 8 A O.+.+.+.+.+.+.+.+.+.+.+.+.+.+.+.D e = X         ",
"        o > k ` +.+.+.+.+.+.+.+.+.+.+.+.+.+.+.+.[ v 2 @ .       ",
"      . @ 6 S O.+.+.+.+.+.+.+.+.+.+.+.+.+.+.+.+.+.G 9 $ .       ",
"      . $ y R +.+.+.+.+.+.+.+.+.+.+.+.+.+.+.+.+.+.R a : .       ",
"      . & g ~ +.+.+.+.+.+.+.+.+.+.+.+.+.+.+.+.+.+.) l > X       ",
"      . > j / +.+.+.+.+.+.+.+.+.+.+.+.+.+.+.+.+.+.[ n 2 X       ",
"      . > k ) +.+.+.+.+.+.+.+.+.+.+.+.+.+.+.+.+.+.} m 2 X       ",
"      . > j ~ +.+.+.+.+.+.+.+.+.+.+.+.+.+.+.+.+.+.] v 2 X       ",
"      . = d E +.+.+.+.+.+.+.+.+.+.+.+.+.+.+.+.+.+.Q h > .       ",
"      . $ w K +.+.+.+.+.+.+.+.+.+.+.+.+.+.+.+.+.+.U t ; .       ",
"        @ 4 m } +.+.+.+.+.+.+.+.+.+.+.+.+.+.+.+. .V 8 # .       ",
"        o : u P +.+.+.+.+.+.+.+.+.+.+.+.+.+.+.+.T s , O         ",
"        . @ 5 c ! +.+.+.+.+.+.+.+.+.+.+.+.+.+.' M 0 * .         ",
"          X ; w B ( +.+.+.+.+.+.+.+.+.+.+.+.| Z t : o .         ",
"          . O : r N Q o.+.+.+.+.+.+.+.+.O.^ C t < @ .           ",
"            . + : w z H ^ ..+.+.+.+.X._ L b r < @ .             ",
"              . O ; 5 t c C H L I J Z b i 7 : @ .               ",
"                . X @ : 4 q t i i t w 5 : $ o .                 ",
"                    . X O @ $ * * $ @ + X .                     ",
"                                                                ",
"                                                                ",
"                                                                "
};
