/* XPM */
static char *_5f4e7bb994b419ac5702fda0ce2ce90kPdlnembYJ3LKweW[] = {
/* columns rows colors chars-per-pixel */
"32 32 89 1 ",
"  c #000000",
". c #040D0D",
"X c #051313",
"o c #071818",
"O c #081B1B",
"+ c #0D2525",
"@ c #0E2B2B",
"# c #0E3030",
"$ c #113333",
"% c #163C3C",
"& c #183D3D",
"* c #174141",
"= c #194444",
"- c #1E4D4D",
"; c #1E5353",
": c #205757",
"> c #275E5E",
", c #256565",
"< c #286161",
"1 c #286868",
"2 c #326F6F",
"3 c #337373",
"4 c #327979",
"5 c #3F8383",
"6 c #3E8C8C",
"7 c #418686",
"8 c #418888",
"9 c #4C9C9C",
"0 c #4BA1A1",
"q c #55AFAF",
"w c #5AADAD",
"e c #5AB3B3",
"r c #67BDBD",
"t c #69BFBF",
"y c #66C3C3",
"u c #73CDCD",
"i c #6ED1D1",
"p c #73D2D2",
"a c #77DFDF",
"s c #79DCDC",
"d c #82DDDD",
"f c #83E4E4",
"g c #88E7E7",
"h c #84E9E9",
"j c #8DEBEB",
"k c #92EFEF",
"l c #98EEEE",
"z c #83F7F7",
"x c #8DF2F2",
"c c #85F8F8",
"v c #96F4F4",
"b c #9DF6F6",
"n c #ACEDED",
"m c #B5EDED",
"M c #BCEEEE",
"N c #A2F6F6",
"B c #A0F9F9",
"V c #ACFAFA",
"C c #B3F3F3",
"Z c #BDF3F3",
"A c #B4FAFA",
"S c #BBFAFA",
"D c #C3EFEF",
"F c #C5F1F1",
"G c #CCF3F3",
"H c #C6FAFA",
"J c #C9FAFA",
"K c #CDFAFA",
"L c #D0F2F2",
"P c #D4F3F3",
"I c #D3F4F4",
"U c #D4F4F4",
"Y c #DBF6F6",
"T c #DEF6F6",
"R c #D0FAFA",
"E c #D6F8F8",
"W c #D8F8F8",
"Q c #DFF8F8",
"! c #E1F7F7",
"~ c #E4F7F7",
"^ c #E1F9F9",
"/ c #E4F8F8",
"( c #E9F9F9",
") c #EDFAFA",
"_ c #F1FBFB",
"` c #F4FBFB",
"' c #F3FCFC",
"] c #F5FCFC",
"[ c #F9FDFD",
/* pixels */
"                                ",
"                                ",
"               ..               ",
"              .==.              ",
"              #qw@              ",
"             X3hh2.             ",
"            .*yBBr%             ",
"            O6kZZk5X            ",
"           .;pAUIAu-.           ",
"           +9bGTTGb9+           ",
"          .,dST//TSd>.          ",
"          $eVW((((EVq@          ",
"         X4jJ())))(Hj3X         ",
"        .*yA^)_`]_)QAt&         ",
"        O6vR()][[])(Kl7o        ",
"       .;pS^(_][[]_(QSu-.       ",
"       +0bG/()']]')(~GN9+       ",
"      .,fSY!(()__)(/!YSd>.      ",
"      $eNGYT~/())(/^TYGNw$      ",
"     X4gCLUT!!////!TYULCg3X     ",
"    .=yNFLIUYT!!!TTYUPLFNt&.    ",
"    O6jCFGLLUYYYYYYULGGFCj8O    ",
"   .:iNMDFGGLLUUUPLLGGFDMNu-.   ",
"   @0xnMDDFGGGGLLLGGGGDDMnx9+   ",
"  .1avnmmMMZFFFFFFFFZMMmmnvs<.  ",
"  $ezxvvvbbbbbbbbbbbbbbvvvxce$  ",
" .=9qqqqqqqqqqqqqqqqqqqqqqqq9&  ",
"  X++++++++++++++++++++++++++.  ",
"                                ",
"                                ",
"                                ",
"                                "
};
