/* XPM */
static char *f84c24b32fb6425ee9a8e6daa8e75f82NwWzjAPGRgrg7bD3[] = {
/* columns rows colors chars-per-pixel */
"32 32 156 2 ",
"   c black",
".  c #120504",
"X  c #3E0C0C",
"o  c #420D0D",
"O  c #3F0D0D",
"+  c #E32C2C",
"@  c #F12E2E",
"#  c #F42F2F",
"$  c #F62F2F",
"%  c #430E0E",
"&  c #FF3131",
"*  c #FA3030",
"=  c #D02828",
"-  c #B32222",
";  c #B42222",
":  c #D62929",
">  c #FD3131",
",  c #F02E2E",
"<  c #6D1515",
"1  c #120303",
"2  c #150404",
"3  c #160404",
"4  c #170404",
"5  c #110303",
"6  c #7E1818",
"7  c #F73030",
"8  c #EE2E2E",
"9  c #5F1212",
"0  c #020000",
"q  c #4E0F0F",
"w  c #A82020",
"e  c #7D1818",
"r  c #0F0303",
"t  c #721616",
"y  c #601212",
"u  c #270707",
"i  c #D92929",
"p  c #F22E2E",
"a  c #681414",
"s  c #731616",
"d  c #090202",
"f  c #390B0B",
"g  c #510F0F",
"h  c #EA2D2D",
"j  c #FF3232",
"k  c #FB3030",
"l  c #751616",
"z  c #5E1212",
"x  c #D52929",
"c  c #DB2A2A",
"v  c #911B1B",
"b  c #CB2727",
"n  c #A72020",
"m  c #270808",
"M  c #230707",
"N  c #CC2727",
"B  c #CE2727",
"V  c #6A1414",
"C  c #C62626",
"Z  c #F83030",
"A  c #AF2121",
"S  c #410C0C",
"D  c #ED2D2D",
"F  c #8C1B1B",
"G  c #E92D2D",
"H  c #4F0F0F",
"J  c #380B0B",
"K  c #DA2A2A",
"L  c #891A1A",
"P  c #070101",
"I  c #EC2D2D",
"U  c #811818",
"Y  c #AB2020",
"T  c #951C1C",
"R  c #080202",
"E  c #0E0202",
"W  c #9E1E1E",
"Q  c #D92A2A",
"!  c #D72929",
"~  c #1A0505",
"^  c #711616",
"/  c #641313",
"(  c #2C0808",
")  c #1B0505",
"_  c #5B1111",
"`  c #EE2D2D",
"'  c #6C1515",
"]  c #8E1B1B",
"[  c #240707",
"{  c #C32525",
"}  c #B72323",
"|  c #1E0606",
" . c #E52C2C",
".. c #EB2D2D",
"X. c #FE3131",
"o. c #040101",
"O. c #FC3030",
"+. c #E72C2C",
"@. c #010000",
"#. c #100303",
"$. c #7F1919",
"%. c #911C1C",
"&. c #1F0606",
"*. c #080101",
"=. c #931C1C",
"-. c #CD2727",
";. c #821919",
":. c #E62C2C",
">. c #0D0202",
",. c #961D1D",
"<. c #C72626",
"1. c #490E0E",
"2. c #B62323",
"3. c #7C1818",
"4. c #DE2A2A",
"5. c #3F0C0C",
"6. c #EF2E2E",
"7. c #1C0505",
"8. c #9D1E1E",
"9. c #BE2424",
"0. c #350A0A",
"q. c #050101",
"w. c #8F1B1B",
"e. c #791717",
"r. c #CA2727",
"t. c #771616",
"y. c #3B0B0B",
"u. c #C22525",
"i. c #E22B2B",
"p. c #400C0C",
"a. c #6E1515",
"s. c #521010",
"d. c #E42C2C",
"f. c #B12222",
"g. c #130303",
"h. c #611212",
"j. c #0A0202",
"k. c #841919",
"l. c #BC2424",
"z. c #9A1D1D",
"x. c #250707",
"c. c #140404",
"v. c #460D0D",
"b. c #B92323",
"n. c #AC2020",
"m. c #310909",
"M. c #500F0F",
"N. c #F93030",
"B. c #C12525",
"V. c #B42323",
"C. c #D82929",
"Z. c #DD2A2A",
"A. c #F52F2F",
"S. c #F32F2F",
"D. c #120505",
"F. c white",
/* pixels */
"                                                                ",
"                                                                ",
"                                                                ",
"      . X o o o o o o o o o o o o o o o o o o o o o o X .       ",
"      O + @ @ @ @ # $ $ $ $ $ $ $ $ $ $ $ $ # @ @ @ @ + O       ",
"      % @ & & & * = - ; ; ; ; ; ; ; ; ; ; - : > & & & @ %       ",
"      % @ & & & , < 1 2 2 2 2 2 2 3 4 3 2 5 6 7 & & & @ %       ",
"      % @ & & & 8 9             0 q w e r   t $ & & & @ %       ",
"      % @ & & & 8 y             u i & p a   s $ & & & @ %       ",
"      % @ & & & 8 y   d f X X f g h j k l   s $ & & & @ %       ",
"      % @ & & & 8 y   z x c c c ; v b n m   s $ & & & @ %       ",
"      % @ & & & 8 z M N B V V C Z N A S     s $ & & & @ %       ",
"      % @ & & & D V F G H   J K j & Z L P   s $ & & & @ %       ",
"      % @ & & & I U Y T R E W & j Q : ! ~   ^ $ & & & @ %       ",
"      % @ & & & 8 / ( )   _ ` j # t ' h ] z w * & & & @ %       ",
"      % @ & & & 8 y     [ { j & } 2 | {  .Q ..X.& & & @ %       ",
"      % @ & & & 8 y   o.t O.& +.S   @.#.3 1 $.7 & & & @ %       ",
"      % @ & & & 8 y   R %.> & : &.          t $ & & & @ %       ",
"      % @ & & & 8 y   *.=. .-.p ;.o.        s $ & & & @ %       ",
"      % @ & & * :.y @.>.,.i / <.+ 1.        s $ & & & @ %       ",
"      % @ & X.- 2.,.3.;.b 4.5.g 6.} 7.      s $ & & & @ %       ",
"      % @ & X.8.N i c c 4.9.0.q.w.$ e.q.    s $ & & & @ %       ",
"      % @ & X.x r.t.y.X X 0.r   [ u.i.p.    a.# & & & @ %       ",
"      % @ & & j @ 9               s.d.f.g.  h.6.& & & @ %       ",
"      % @ & & & :.H               j.k.l.J   s # & & & @ %       ",
"      % @ & & * z.x.c.2 2 2 2 2 c.v.b.n.m.M.: & & & & @ %       ",
"      % @ & & N.B.- ; ; ; ; ; ; V.C.& K } Z.j & & & & @ %       ",
"      O d.@ @ @ A.$ $ $ $ $ $ $ $ # @ S.$ S.@ @ @ @ @ d.O       ",
"      D.O % % % % % % % % % % % % % % % % % % % % % % O .       ",
"                                                                ",
"                                                                ",
"                                                                "
};
