/* XPM */
static char *exit_resized[] = {
/* columns rows colors chars-per-pixel */
"32 32 138 2 ",
"   c #000000",
".  c #000100",
"X  c #000101",
"o  c #000202",
"O  c #000302",
"+  c #000403",
"@  c #000503",
"#  c #000504",
"$  c #000604",
"%  c #000805",
"&  c #000906",
"*  c #000A07",
"=  c #000B07",
"-  c #020B08",
";  c #000C08",
":  c #000D09",
">  c #000F0A",
",  c #00100B",
"<  c #00110B",
"1  c #00120C",
"2  c #00140D",
"3  c #00140E",
"4  c #00150E",
"5  c #00160F",
"6  c #00170F",
"7  c #001911",
"8  c #001C13",
"9  c #001E14",
"0  c #001F14",
"q  c #002015",
"w  c #002116",
"e  c #002217",
"r  c #002318",
"t  c #002418",
"y  c #002519",
"u  c #022419",
"i  c #01261A",
"p  c #00281B",
"a  c #002A1C",
"s  c #002C1E",
"d  c #002D1E",
"f  c #002E1F",
"g  c #002F1F",
"h  c #003423",
"j  c #003524",
"k  c #003624",
"l  c #003725",
"z  c #003825",
"x  c #003926",
"c  c #003B28",
"v  c #003C28",
"b  c #003C29",
"n  c #003E2A",
"m  c #003F2A",
"M  c #00402B",
"N  c #00412B",
"B  c #00412C",
"V  c #00422C",
"C  c #00432D",
"Z  c #00442E",
"A  c #00452E",
"S  c #00472F",
"D  c #004730",
"F  c #004830",
"G  c #004831",
"H  c #004931",
"J  c #004A31",
"K  c #004B32",
"L  c #004C33",
"P  c #004E35",
"I  c #005036",
"U  c #005136",
"Y  c #005237",
"T  c #005337",
"R  c #005338",
"E  c #005439",
"W  c #005639",
"Q  c #00563A",
"!  c #00583B",
"~  c #005A3C",
"^  c #005B3C",
"/  c #005F40",
"(  c #006040",
")  c #006142",
"_  c #006242",
"`  c #006443",
"'  c #006544",
"]  c #006644",
"[  c #006645",
"{  c #006745",
"}  c #006846",
"|  c #006946",
" . c #006A47",
".. c #006C48",
"X. c #006D49",
"o. c #006F4A",
"O. c #006F4B",
"+. c #00704B",
"@. c #00714C",
"#. c #00724C",
"$. c #00744E",
"%. c #00754E",
"&. c #00754F",
"*. c #00764F",
"=. c #007750",
"-. c #007A52",
";. c #007B53",
":. c #007C53",
">. c #007D54",
",. c #007F55",
"<. c #008157",
"1. c #008257",
"2. c #008258",
"3. c #008358",
"4. c #008458",
"5. c #008459",
"6. c #00865A",
"7. c #00875B",
"8. c #00885B",
"9. c #00885C",
"0. c #00895C",
"q. c #008A5D",
"w. c #008B5D",
"e. c #008B5E",
"r. c #008C5E",
"t. c #008D5E",
"y. c #008D5F",
"u. c #008E5F",
"i. c #008F60",
"p. c #009060",
"a. c #009061",
"s. c #009161",
"d. c #009162",
"f. c #009262",
"g. c #009362",
"h. c #009363",
"j. c #009463",
"k. c #009564",
/* pixels */
"                                                                ",
"                                                                ",
"                                                                ",
"      - u i i i i i i i i i i i i i i i i i i i i i i u -       ",
"      u 2.q.q.q.q.r.y.y.y.y.y.y.y.y.y.y.y.y.r.q.q.q.q.2.u       ",
"      i q.g.f.g.i.=.[ { { { { { { { { { { [ -.s.g.f.g.q.i       ",
"      i q.f.f.h.0.n * ; ; ; ; ; ; ; : : ; & F y.g.f.f.q.i       ",
"      i q.f.f.h.9.k             X s ( D &   N t.g.f.f.q.i       ",
"      i q.f.f.h.9.l             5 :.g.w.c   B t.g.f.f.q.i       ",
"      i q.f.f.h.9.l   # w r r w f 6.j.p.C   B t.g.f.f.q.i       ",
"      i q.f.f.h.9.l   j -.>.>.>.[ T $./ 6   B t.g.f.f.q.i       ",
"      i q.f.f.h.9.k 3 %.*.b v @.u.%.` y     B t.g.f.f.q.i       ",
"      i q.f.f.h.8.b I 6.s   q >.j.f.u.P +   B t.g.f.f.q.i       ",
"      i q.f.f.h.7.H ) W @ % ^ d.j.:.-.;.>   M t.g.f.f.q.i       ",
"      i q.f.f.h.8.x 7 >   h 8.j.r.N n 6.U k ( i.g.f.f.q.i       ",
"      i q.f.f.h.9.l     3 +.j.f.} ; < O.3.:.6.d.f.f.f.q.i       ",
"      i q.f.f.h.9.l   o N a.f.5.y   . & : * G y.g.f.f.q.i       ",
"      i q.f.f.h.9.l   @ R s.f.-.1           B t.g.f.f.q.i       ",
"      i q.f.f.h.9.l   @ E 3.&.w.K o         B t.g.f.f.q.i       ",
"      i q.f.f.i.4.l . % Q :.x #.1.a         B t.g.f.f.q.i       ",
"      i q.f.d.] } W S J %.,.t f 0.} ,       B t.g.f.f.q.i       ",
"      i q.f.s.~ %.:.>.>.,.X.9 O Y t.A O     B t.g.f.f.q.i       ",
"      i q.f.d.-.$.Z e r t 0 &   2 o.<.y     m r.g.f.f.q.i       ",
"      i q.f.f.k.q.l               g 2.' =   z 0.h.f.f.q.i       ",
"      i q.f.f.h.4.d               $ L ..q   V e.g.f.f.q.i       ",
"      i q.f.f.i.! 4 ; ; ; ; ; ; ; p  ._ 8 f -.h.f.f.f.q.i       ",
"      i q.g.f.i.o.[ { { { { { { { :.h.>.| ,.j.f.f.f.g.q.i       ",
"      u 2.q.q.q.t.y.y.y.y.y.y.y.y.r.q.e.y.e.q.q.q.q.q.2.u       ",
"      - u i i i i i i i i i i i i i i i i i i i i i i u -       ",
"                                                                ",
"                                                                ",
"                                                                "
};
