/* XPM */
static char *coll_resized[] = {
/* columns rows colors chars-per-pixel */
"32 32 21 1 ",
"  c #000000",
". c #020000",
"X c #060101",
"o c #070101",
"O c #270808",
"+ c #280808",
"@ c #290808",
"# c #350A0A",
"$ c #360A0A",
"% c #370B0B",
"& c #380B0B",
"* c #490E0E",
"= c #941C1C",
"- c #961C1C",
"; c #C72626",
": c #C82626",
"> c #D22828",
", c #D52929",
"< c #D62929",
"1 c #FF3131",
"2 c #FF3232",
/* pixels */
"                                ",
"                                ",
"                                ",
"                                ",
"                                ",
"                                ",
"                                ",
"                                ",
"                                ",
"             X@&&@X             ",
"           .#=:<<:=#.           ",
"          .*>122221>*.          ",
"          #>21111112>#          ",
"         o-1111111111=o         ",
"         +;2111111112;O         ",
"         $,2111111112,$         ",
"         $,2111111112,$         ",
"         +:2111111112;O         ",
"         o=1111111111=o         ",
"          #>21111112>#          ",
"          .*>122221>*.          ",
"           .#=:<<;=#.           ",
"             o@&%+o             ",
"                                ",
"                                ",
"                                ",
"                                ",
"                                ",
"                                ",
"                                ",
"                                ",
"                                "
};
