/* XPM */
static char *_ee9ea00135c4198f901ca812b150683oUOxV0SNzVnG0Ala[] = {
/* columns rows colors chars-per-pixel */
"40 40 15 1 ",
"  c black",
". c #040000",
"X c #3B0B0B",
"o c #3C0B0B",
"O c #430D0D",
"+ c #440D0D",
"@ c #571010",
"# c #821919",
"$ c #871A1A",
"% c #8E1B1B",
"& c #911C1C",
"* c #D32828",
"= c #D72929",
"- c #FB3030",
"; c #FF3131",
/* pixels */
"                                        ",
"                                        ",
"                                        ",
"                                        ",
"                                        ",
"                                        ",
"                                        ",
"                                        ",
"                                        ",
"                                        ",
"                                        ",
"                                        ",
"                .O$&&$O.                ",
"               X*;;;;;;*X               ",
"              @-;;;;;;;;-@              ",
"             X-;;;;;;;;;;-X             ",
"            .=;;;;;;;;;;;;*.            ",
"            +;;;;;;;;;;;;;;+            ",
"            $;;;;;;;;;;;;;;#            ",
"            %;;;;;;;;;;;;;;%            ",
"            %;;;;;;;;;;;;;;%            ",
"            $;;;;;;;;;;;;;;#            ",
"            +;;;;;;;;;;;;;;+            ",
"            .*;;;;;;;;;;;;*.            ",
"             o-;;;;;;;;;;-o             ",
"              @-;;;;;;;;-@              ",
"               o*;;;;;;*o               ",
"                .+$&&#+.                ",
"                                        ",
"                                        ",
"                                        ",
"                                        ",
"                                        ",
"                                        ",
"                                        ",
"                                        ",
"                                        ",
"                                        ",
"                                        ",
"                                        "
};
