/* XPM */
static char *_c72c29686024bf1ed56160527094f77pVr1QYAjxA7rAK53[] = {
/* columns rows colors chars-per-pixel */
"40 40 44 1 ",
"  c black",
". c #000403",
"X c #000604",
"o c #000B07",
"O c #030C09",
"+ c #00100A",
"@ c #00120C",
"# c #00160F",
"$ c #001910",
"% c #001F15",
"& c #002216",
"* c #02261A",
"= c #00291B",
"- c #002D1E",
"; c #002F20",
": c #003221",
"> c #003423",
", c #003624",
"< c #003926",
"1 c #003D29",
"2 c #00422C",
"3 c #00442D",
"4 c #004931",
"5 c #004D33",
"6 c #004D34",
"7 c #005035",
"8 c #005438",
"9 c #005B3D",
"0 c #005D3E",
"q c #006443",
"w c #006645",
"e c #006946",
"r c #006B48",
"t c #006D49",
"y c #00704B",
"u c #00724C",
"i c #00764F",
"p c #007B52",
"a c #007F55",
"s c #008458",
"d c #008B5D",
"f c #008D5F",
"g c #008F60",
"h c #009262",
/* pixels */
"                                        ",
"                                        ",
"                                        ",
"                                        ",
"    O******************************O    ",
"    *hhhhhhhhhhhhhhhhhhhhhhhhhhhhhh*    ",
"    *hhhhhhhhhhhhhhhhhhhhhhhhhhhhhh*    ",
"    *hhhhhhe****************ihhhhhh*    ",
"    *hhhhhh9                thhhhhh*    ",
"    *hhhhhh9         Ota8   thhhhhh*    ",
"    *hhhhhh9         yhhh3  thhhhhh*    ",
"    *hhhhhh9         fhhh9  thhhhhh*    ",
"    *hhhhhh9  O999991qhhh<  thhhhhh*    ",
"    *hhhhhh9  0hhhhhg-7e1   thhhhhh*    ",
"    *hhhhhh9 *hs***uhhu9o   thhhhhh*    ",
"    *hhhhhh9.ph>  *hhhhh1   thhhhhh*    ",
"    *hhhhhh93hy   phhhshi   thhhhhh*    ",
"    *hhhhhh9#w$  3hhhg&sh$  thhhhhh*    ",
"    *hhhhhh9    @fhhh7 6hi99shhhhhh*    ",
"    *hhhhhh9    ehhhaX @hhhhhhhhhhh*    ",
"    *hhhhhh9   -hhhh=       thhhhhh*    ",
"    *hhhhhh9   4hhhu        thhhhhh*    ",
"    *hhhhhh9   4hdhh&       thhhhhh*    ",
"    *hhhhhh9   4h9thp.      thhhhhh*    ",
"    *hhhhhh9   4h9@dh6      thhhhhh*    ",
"    *hhhh895,,,qh9 1hg%     thhhhhh*    ",
"    *hhhh4hhhhhhh9  rhp     thhhhhh*    ",
"    *hhhh29999999<  +dh4    thhhhhh*    ",
"    *hhhhhh9         ,hg$   whhhhhh*    ",
"    *hhhhhh9          whi   9hhhhhh*    ",
"    *hhhhhh9          +rt=  0hhhhhh*    ",
"    *hhhhhs#          &tr# ;ghhhhhh*    ",
"    *hhhhg<**********:dh8*<ghhhhhhh*    ",
"    *hhhhhhhhhhhhhhhhhhhhhhhhhhhhhh*    ",
"    *hhhhhhhhhhhhhhhhhhhhhhhhhhhhhh*    ",
"    O******************************O    ",
"                                        ",
"                                        ",
"                                        ",
"                                        "
};
