/* XPM */
static char *_1a2d2829c17416389f620db36dd4186POzWfJuLxpxHzSoG[] = {
/* columns rows colors chars-per-pixel */
"40 40 19 1 ",
"  c black",
". c #020401",
"X c #070C04",
"o c #090F06",
"O c #13210D",
"+ c #233D18",
"@ c #335823",
"# c #345A24",
"$ c #365D25",
"% c #45772F",
"& c #467A31",
"* c #57973C",
"= c #5A9B3E",
"- c #5A9C3E",
"; c #68B448",
": c #73C64F",
"> c #75CA51",
", c #7BD455",
"< c #7ED957",
/* pixels */
"                                        ",
"                                        ",
"                                        ",
"                                        ",
"                                        ",
"                   ++                   ",
"                  .;;.                  ",
"                  $<<$                  ",
"                 o><<>o                 ",
"                 &<<<<&                 ",
"                O,<<<<,O                ",
"                -<<<<<<-                ",
"               +<<<<<<<<+               ",
"               ;<<<<<<<<;               ",
"              $<<<<<<<<<<#              ",
"             o><<<<<<<<<<>o             ",
"             &<<<<<<<<<<<<&             ",
"            O,<<<<<<<<<<<<,O            ",
"            =<<<<<<<<<<<<<<*            ",
"           +<<<<<<<<<<<<<<<<+           ",
"           ;<<<<<<<<<<<<<<<<;           ",
"          #<<<<<<<<<<<<<<<<<<@          ",
"         o><<<<<<<<<<<<<<<<<<>o         ",
"         &<<<<<<<<<<<<<<<<<<<<&         ",
"        O,<<<<<<<<<<<<<<<<<<<<,O        ",
"        *<<<<<<<<<<<<<<<<<<<<<<*        ",
"       +<<<<<<<<<<<<<<<<<<<<<<<<+       ",
"       ;<<<<<<<<<<<<<<<<<<<<<<<<;       ",
"      @<<<<<<<<<<<<<<<<<<<<<<<<<<@      ",
"     o><<<<<<<<<<<<<<<<<<<<<<<<<<:X     ",
"     &<<<<<<<<<<<<<<<<<<<<<<<<<<<<%     ",
"    O,<<<<<<<<<<<<<<<<<<<<<<<<<<<<,O    ",
"    *<<<<<<<<<<<<<<<<<<<<<<<<<<<<<<*    ",
"                                        ",
"                                        ",
"                                        ",
"                                        ",
"                                        ",
"                                        ",
"                                        "
};
