/* XPM */
static char *_570050337034aa2d9ab8fd2b1b674b322QI9Z2SrLMbby1r[] = {
/* columns rows colors chars-per-pixel */
"40 40 3 1 ",
"  c gray45",
". c #B4B4B4",
"X c white",
/* pixels */
"XXXXXXXXXXXXXXXXXXXXXXXXXXXXXXXXXXXXXXXX",
"XXXXXXXXXXXXXXXXXXXXXXXXXXXXXXXXXXXXXXXX",
"XXXXXXXXXXXXXXXXXXXXXXXXXXXXXXXXXXXXXXXX",
"XXXXXXXXXXXXXXXXXXXXXXXXXXXXXXXXXXXXXXXX",
"XXXX................................XXXX",
"XXXX                                XXXX",
"XXXX                                XXXX",
"XXXX                                XXXX",
"XXXX                                XXXX",
"XXXX                                XXXX",
"XXXX                                XXXX",
"XXXX                                XXXX",
"XXXX                                XXXX",
"XXXX                                XXXX",
"XXXX                                XXXX",
"XXXX                                XXXX",
"XXXX                                XXXX",
"XXXX                                XXXX",
"XXXX                                XXXX",
"XXXX                                XXXX",
"XXXX                                XXXX",
"XXXX                                XXXX",
"XXXX                                XXXX",
"XXXX                                XXXX",
"XXXX                                XXXX",
"XXXX                                XXXX",
"XXXX                                XXXX",
"XXXX                                XXXX",
"XXXX                                XXXX",
"XXXX                                XXXX",
"XXXX                                XXXX",
"XXXX                                XXXX",
"XXXX                                XXXX",
"XXXX                                XXXX",
"XXXX                                XXXX",
"XXXX................................XXXX",
"XXXXXXXXXXXXXXXXXXXXXXXXXXXXXXXXXXXXXXXX",
"XXXXXXXXXXXXXXXXXXXXXXXXXXXXXXXXXXXXXXXX",
"XXXXXXXXXXXXXXXXXXXXXXXXXXXXXXXXXXXXXXXX",
"XXXXXXXXXXXXXXXXXXXXXXXXXXXXXXXXXXXXXXXX"
};
