/* XPM */
static char *_4e14162a34c452bdfa27340a57aae27meFbVIEAkknnBbRD[] = {
/* columns rows colors chars-per-pixel */
"32 32 104 2 ",
"   c #0E0000",
".  c #140000",
"X  c #1B0000",
"o  c #240000",
"O  c #2C0000",
"+  c #330000",
"@  c #3C0000",
"#  c #430000",
"$  c #4D0000",
"%  c #550101",
"&  c #5C0000",
"*  c #630101",
"=  c #6D0101",
"-  c #760202",
";  c #7A0303",
":  c #750808",
">  c #7E0B0B",
",  c #840505",
"<  c #8A0707",
"1  c #9E0000",
"2  c #8D1D1D",
"3  c #A40303",
"4  c #A80000",
"5  c #AD0E0E",
"6  c #B10D0D",
"7  c #AC1515",
"8  c #B21414",
"9  c #B81616",
"0  c #B51919",
"q  c #BB1B1B",
"w  c #AA2424",
"e  c #A62929",
"r  c #B32929",
"t  c #BA3333",
"y  c #B03E3E",
"u  c #C01C1C",
"i  c #C32525",
"p  c #C52929",
"a  c #C13C3C",
"s  c #CC3F3F",
"d  c #D23535",
"f  c #B54040",
"g  c #BA4141",
"h  c #C24141",
"j  c #CE4343",
"k  c #CE4949",
"l  c #D14747",
"z  c #D24C4C",
"x  c #D84F4F",
"c  c #C65252",
"v  c #CA5252",
"b  c #D55353",
"n  c #D75B5B",
"m  c #D95C5C",
"M  c #CE6565",
"N  c #DA6565",
"B  c #DA6C6C",
"V  c #DC7575",
"C  c #DC7979",
"Z  c #E76767",
"A  c #E06E6E",
"S  c #E57575",
"D  c #EA7474",
"F  c #E57D7D",
"G  c #E87C7C",
"H  c #E38383",
"J  c #EB8383",
"K  c #EB8B8B",
"L  c #F08585",
"P  c #ED9393",
"I  c #ED9797",
"U  c #EA9B9B",
"Y  c #ED9898",
"T  c #ED9E9E",
"R  c #F09393",
"E  c #F49B9B",
"W  c #F39D9D",
"Q  c #F59D9D",
"!  c #EBA3A3",
"~  c #EEA1A1",
"^  c #F3A3A3",
"/  c #F1A8A8",
"(  c #F4A8A8",
")  c #F2ADAD",
"_  c #F7ADAD",
"`  c #F6B0B0",
"'  c #F6B4B4",
"]  c #F8B3B3",
"[  c #F8B7B7",
"{  c #F6B8B8",
"}  c #F7BFBF",
"|  c #F9B9B9",
" . c #FABCBC",
".. c #FAC2C2",
"X. c #FBC4C4",
"o. c #FAC7C7",
"O. c #FBC9C9",
"+. c #FBCBCB",
"@. c #FACCCC",
"#. c #FCCECE",
"$. c #FDD3D3",
"%. c #FDD7D7",
"&. c #FCD9D9",
"*. c #FDDCDC",
/* pixels */
"  . . X X o O O O O O O O O + + + O O O O O O O O O o o X X .   ",
". . X o O + @ @ # # # # # # # # # # # # # # # # # @ + + O o X . ",
". X o + @ $ % & & & & & & & & & & & & & & & & * & & % # @ O o X ",
"X o + # & : , , , , , , , , , , , , , , , , , , , , ; * $ @ O X ",
"X O @ % 2 M B n m N N N N B B B B B B B B B B B B V V y * # + o ",
"o O # * f #.o.E _ | ....o.o.o.o.+.+.+.+.#.$.$.%.%.&.*.C ; % @ o ",
"o + $ = h @.} D S J J K K K K K K K K K K P I Y Y ( | A < & @ O ",
"o + % - h +.{ d 8 8 8 8 8 8 8 8 8 8 8 8 8 8 8 9 i Z Q N < & # O ",
"O @ % - h +.' p 4 5 8 8 8 7 7 7 7 7 7 7 8 8 7 3 6 D ] B < * # O ",
"O @ % - h o.` p 5 B P K P I I Y Y Y Y T T ^ V 5 6 S  .V < * # O ",
"O @ % - h o._ i 8 ~ ) B V V V V C C C C H / I 7 5 F ..V < * # O ",
"O @ % - h ..( i 8 T H 7 8 0 0 0 0 0 q q 6 N K 7 5 F o.V < * # O ",
"O @ % - h ..( i 8 Y C 8 S S F F F J K J 8 B I 7 5 G o.C < * # + ",
"O @ % - h  .( i 8 Y C 0 K l j z z j j G 8 B U 7 5 G o.S < * # + ",
"O @ % - h  .( i 8 Y C 0 F k n n n n s F 8 B U 7 5 F o.V < * # O ",
"O @ % - h  .( i 8 I C 0 F z n r r n z F 7 B U 7 5 G o.V < & # O ",
"O @ % - h  .( i 8 I C 0 F z b r r n z F 7 B U 7 5 G o.V < * # O ",
"O @ % - h | ^ i 8 I C 0 S z m n n n l F 7 V U 7 5 F o.C < & # O ",
"O @ % - h | ^ i 8 I C 8 S x b b b z x F 8 V U 7 5 F o.C < * # O ",
"O @ % - h | ^ i 8 P V 7 m H F F F F K N 5 B U 7 5 F o.C < & # O ",
"O @ % - h | ^ i 8 K B 5 5 8 7 7 7 7 7 5 5 B P 7 5 F o.F < & # O ",
"O @ % - a [ W i 8 J ^ F C C V V V C C C F W J 7 5 F o.C < & # O ",
"O @ % - a ` E i 5 N ! ! ! U U U U U U ! ! I k 3 5 F ..V < & @ O ",
"o @ % - a ( R i 4 5 8 7 7 7 7 7 7 7 7 7 7 7 3 1 5 S | V , & @ O ",
"o + % - a E L d u q q q q q q q q q q q q q q q p D ( V , % @ o ",
"o + $ = t ( } _ / ^ ^ ^ ^ ^ W W W W ^ ^ ^ ^ / / _ ' E m ; $ + o ",
"X O # * w ( %.$.$.#.@.+.+.+.+.+.+.+.+.+.+.#.#.$.%.#.J t * # O o ",
"X O @ % > g v v v v v v v v v v v v v v v v v v v c e : % @ o X ",
"X o O # % * - ; ; ; ; ; ; ; ; ; ; ; ; ; - - ; - - = & $ @ O o . ",
". X o O @ # % % & & & & & & & & & & & & & & % % % $ # @ O o X . ",
". . X o O O + @ @ @ @ @ @ @ @ @ @ @ @ @ @ @ @ @ + + O o X X .   ",
"  . . X X o o o O O O O O O O O O O O O O O O o o o X X . .     "
};
