/* XPM */
static char *_090253ae9e547198f8e48a21650b6cahbHa5dDdirivq5Yy[] = {
/* columns rows colors chars-per-pixel */
"32 32 133 2 ",
"   c #000E00",
".  c #001400",
"X  c #001B00",
"o  c #002400",
"O  c #002C01",
"+  c #003301",
"@  c #003C01",
"#  c #004302",
"$  c #004D05",
"%  c #015504",
"&  c #005C04",
"*  c #016204",
"=  c #016E03",
"-  c #036808",
";  c #027603",
":  c #037904",
">  c #08750D",
",  c #067D0A",
"<  c #0B7E11",
"1  c #058407",
"2  c #068509",
"3  c #078A0A",
"4  c #009D08",
"5  c #02A50B",
"6  c #05A210",
"7  c #0EAD13",
"8  c #0EAD19",
"9  c #15AB17",
"0  c #15AC19",
"q  c #0DB114",
"w  c #14B117",
"e  c #14B31A",
"r  c #18B51F",
"t  c #16B81E",
"y  c #1C8C24",
"u  c #16B520",
"i  c #1AB522",
"p  c #1ABA23",
"a  c #23AA2C",
"s  c #29B32D",
"d  c #2AA732",
"f  c #33BA3C",
"g  c #1CC025",
"h  c #20C325",
"j  c #25C32D",
"k  c #27C331",
"l  c #29C433",
"z  c #35D23F",
"x  c #3EB045",
"c  c #40B447",
"v  c #41B948",
"b  c #3CC143",
"n  c #3FCC48",
"m  c #40C247",
"M  c #42C249",
"N  c #42CE4A",
"B  c #47D14F",
"V  c #4BCF53",
"C  c #52CA57",
"Z  c #53C659",
"A  c #53CB59",
"S  c #4CD254",
"D  c #50D257",
"F  c #58D45F",
"G  c #50D858",
"H  c #5CD763",
"J  c #5CD964",
"K  c #65CD6B",
"L  c #66D76D",
"P  c #65DA6C",
"I  c #68D86F",
"U  c #6CDB73",
"Y  c #70DB77",
"T  c #76DD7C",
"R  c #79DD7E",
"E  c #6CE473",
"W  c #70E577",
"Q  c #76E57D",
"!  c #79E47F",
"~  c #74EA7B",
"^  c #78E97F",
"/  c #7CDC81",
"(  c #7DE583",
")  c #7DE883",
"_  c #80DC85",
"`  c #81E486",
"'  c #84E489",
"]  c #84EA8B",
"[  c #89EB8F",
"{  c #85F08B",
"}  c #8CEB92",
"|  c #91EB97",
" . c #95EC9A",
".. c #99EB9E",
"X. c #93F098",
"o. c #99F49F",
"O. c #9EEBA2",
"+. c #9EF3A3",
"@. c #A1EAA5",
"#. c #A1EEA6",
"$. c #A5EBA9",
"%. c #A1F2A6",
"&. c #A5F3AA",
"*. c #A8F1AD",
"=. c #AAF4AE",
"-. c #ADF2B0",
";. c #ADF7B1",
":. c #B0F5B4",
">. c #B4F5B7",
",. c #B3F8B7",
"<. c #B4F5B8",
"1. c #B8F6BB",
"2. c #B7F8BB",
"3. c #B9F9BD",
"4. c #BFF7C2",
"5. c #BCFAC0",
"6. c #BDFAC1",
"7. c #C0FAC3",
"8. c #C3FAC7",
"9. c #C4FAC7",
"0. c #C5FBC9",
"q. c #C7FACA",
"w. c #C9FACB",
"e. c #CBFBCD",
"r. c #CCFACF",
"t. c #CAFCCD",
"y. c #CBFCCF",
"u. c #CEFCD0",
"i. c #D2FDD4",
"p. c #D4FDD6",
"a. c #D7FDD9",
"s. c #D8FCDA",
"d. c #DCFDDE",
/* pixels */
"  . . X X o O O O O O O O O O + + O O O O O O O O O o o X X .   ",
". . X o O + @ @ # # # # # # # # # # # # # # # # # @ @ + O o X . ",
". X o + @ $ % & & & & & & & & & & & & & & & & * & & % # @ O o X ",
"X o + # & ; , 1 2 2 1 1 1 1 1 1 1 1 1 1 1 1 1 2 2 2 , - $ @ O X ",
"X O @ % y K U H H P P L L L I I U U U U U U U U U T T x - # + o ",
"o O # * c u.q.+.;.3.7.8.q.q.q.q.e.e.e.y.u.u.i.p.a.s.d.T , % @ o ",
"o + $ = M r.4.^ ^ ] [ [ } } [ } } } } } |  . ...+.=.3.E 3 & @ O ",
"o + % ; M e.1.z e e e e e e w w w w e e e e e t h E +.P 3 & # O ",
"O @ % ; M w.>.l 5 8 e e e 0 0 0 0 9 0 e e e 0 5 q W ,.U 3 * # O ",
"O @ % ; M q.:.l 7 U  .[  . . .......O.O.O.&.T 8 q Q 6.T 3 * # O ",
"O @ % ; M 9.;.k e #.-.U T T T T R R / / ` *. .0 7 ( 8.T 3 * # O ",
"O @ % ; M 8.=.j e O.' 9 e i i i i i p p q P } 0 7 ( q.T 3 * # O ",
"O @ % ; m 8.=.j w O._ e Q ) ( ( ` ` } ] e U  .9 7 ) q.T 3 * # + ",
"O @ % ; m 6.&.j w ../ i ] B N V V N N ) e U ..9 7 ) q.Q 3 * # + ",
"O @ % ; m 6.&.j w ../ i ( B F F F F n ! w U ..9 7 ( q.T 3 * # + ",
"O @ % ; m 6.&.j w  .R r ( S F s s H S ( 9 U ..9 7 ) q.T 3 & # O ",
"O @ % ; m 6.&.j w  .R r ( S G s s H S ( 9 U ..9 7 ) q.T 3 & # O ",
"O @ % ; m 6.%.j w  .R i Q S J J H H B ! 0 Y ..9 7 ( q.! 3 & # O ",
"O @ % ; m 3.&.j w  .R u ~ G G D D S S ! e Y ..9 7 ( q.T 3 * # O ",
"O @ % ; m 3.%.j w | T 9 J ' ( ( ( ( [ P 7 U ..9 7 ( q.T 3 & # O ",
"O @ % ; m 3.%.j e [ U 7 7 e 0 0 0 0 e 9 7 U | 9 7 ( q.T 3 & # O ",
"O @ % ; b 2.+.j e [ &.( / R T T T R R / ( +.` 9 7 ( 9.T 3 & # O ",
"O @ % ; b :.+.j 7 L $.@.@.O.O.O.O.O.O.@.$...V 6 7 ( 8.T 3 & @ O ",
"o @ % ; b =.X.j 5 7 e 0 9 9 9 9 9 9 9 9 9 9 5 4 7 ~ 3.T 2 & @ O ",
"o + % ; b o.{ z g p p p p p p p p p p p p p p p j W =.Y 2 % @ o ",
"o + $ = f &.4.;.*.&.%.%.+.+.+.+.+.+.+.%.%.%.*.*.;.<.+.H , $ + o ",
"X O # * a =.a.i.i.u.y.e.y.y.y.e.y.y.y.y.y.u.u.i.p.u.] f - # O o ",
"X O @ % < v A A A A A A C A A A A A A A A A A A A Z d > % @ o X ",
"X o O # % - ; : : : : : : : : : : : : : : : : : : = & $ @ O o . ",
". X o O @ # % % & & & & & & & & & & & & & & % % % $ # @ O o X . ",
". . X o O O + @ @ @ @ @ @ @ @ @ @ @ @ @ @ @ @ @ + + O o X X .   ",
"  . . X X o o o O O O O O O O O O O O O O O O o o o X X . .     "
};
